<svg width="46" height="46" viewBox="0 0 46 46" fill="none"
  xmlns="http://www.w3.org/2000/svg">
  <path fill-rule="evenodd" clip-rule="evenodd" d="M32.969 2.26687L39.2911 13.217C39.4094 13.4136 39.5242 13.6125 39.6355 13.8136L42.63 19.0001L44.7124 15.3933C42.6895 9.6189 38.4282 4.89657 32.969 2.26687ZM27.2698 0.395581C25.8862 0.135847 24.459 0 23 0C18.1907 0 13.7261 1.47611 10.0346 4H22.9999H29.3508L27.2698 0.395581ZM45.9362 21.2736L39.6318 32.1931C39.5229 32.3897 39.4106 32.5842 39.295 32.7765L36.2792 38H40.4361C43.9037 33.9729 46 28.7312 46 23C46 22.4193 45.9785 21.8435 45.9362 21.2736ZM35.9654 42H22.9999H16.6493L18.7303 45.6044C20.1139 45.8642 21.5411 46 23 46C27.8093 46 32.2739 44.5239 35.9654 42ZM13.0312 43.7332L6.71583 32.7947C6.59269 32.5904 6.47328 32.3836 6.3577 32.1744L3.37023 27L1.28773 30.607C3.31067 36.3813 7.572 41.1036 13.0312 43.7332ZM0.0638459 24.7268L6.35856 13.824C6.47358 13.6159 6.5924 13.4101 6.71491 13.2068L9.72106 8H5.56388C2.09626 12.0271 0 17.2688 0 23C0 23.5809 0.0215335 24.1567 0.0638459 24.7268Z" fill="#7981FB"/>
</svg>
